<?xml version="1.0" encoding="UTF-8"?>
<svg width="96px" height="68px" viewBox="0 0 96 68" version="1.1" xmlns="http://www.w3.org/2000/svg" xmlns:xlink="http://www.w3.org/1999/xlink">
    <!-- Generator: sketchtool 52.5 (67469) - http://www.bohemiancoding.com/sketch -->
    <title>2534427E-3773-4843-9EA2-E408EB8686AC</title>
    <desc>Created with sketchtool.</desc>
    <defs>
        <path d="M60.2718143,38.0495248 L51.5318934,20.5359939 L82.0406912,26.4454866 L89.4572471,39.6195745 L60.2718143,38.0495248 Z M82.6706383,71.1903462 L49.6626802,77.3428228 L49.6626802,27.4127494 L56.6095526,41.33448 C56.9887903,42.0945834 57.7567862,42.5945695 58.6184015,42.6397396 L83.0958922,43.9559023 L82.6706383,71.1903462 Z M12.1054568,44.2923415 L35.037435,42.638182 C35.0818645,42.6350668 35.1167734,42.6101454 35.1612029,42.6054726 C35.3770035,42.577436 35.5848701,42.5229204 35.784803,42.4388106 C35.8466869,42.4138892 35.9101577,42.3951981 35.9704549,42.3640463 C36.2005363,42.244112 36.4131633,42.096141 36.5956417,41.9045576 C36.6194432,41.8796362 36.6337241,41.8484844 36.6575256,41.8220054 C36.7701862,41.6927255 36.88126,41.5603304 36.9653587,41.4030139 L44.9023747,26.7196223 L44.9023747,77.3350348 L12.3831413,71.1965765 L12.1054568,44.2923415 Z M10.8534965,25.9610765 L42.8998729,20.4565569 L33.3776752,38.0728886 L5.82661389,40.0603722 L10.8534965,25.9610765 Z M95.7027679,41.0525564 L85.6712175,23.2337381 C85.331649,22.6309512 84.7381976,22.2057294 84.0495401,22.0717767 L47.7728389,15.0439351 C47.7093681,15.0314744 47.6427239,15.025244 47.5776664,15.0174561 C47.5379972,15.0127833 47.4999147,15.0049954 47.4602455,15.0018802 C47.4538984,15.0018802 47.4475513,15.0003226 47.442791,15.0003226 C47.4253366,14.998765 47.4110557,15.0034378 47.3936012,15.0018802 C47.3475849,15.0003226 47.2999819,15.0034378 47.2523788,15.0049954 C47.1476521,15.0049954 47.0429254,15.0096681 46.9381987,15.025244 C46.9159839,15.0283592 46.8937691,15.025244 46.8731412,15.0299168 L46.8699676,15.0299168 C46.8683808,15.0299168 46.8667941,15.0314744 46.8636205,15.0314744 L8.65740887,21.5951545 C7.80848773,21.7400102 7.10713606,22.3256637 6.82151773,23.1231493 L0.133288553,41.8796362 C0.0491898232,42.1148321 0.0174544534,42.3547008 0.0111073794,42.5930119 C0.0111073794,42.6132606 2.01261238e-12,42.6303941 2.01261238e-12,42.6506427 C2.01261238e-12,42.6926976 0.00317353698,42.7363101 0.00476030547,42.7799226 C0.00634707396,42.7892681 0.00476030547,42.7986137 0.00634707396,42.8095168 C0.00634707396,42.8141896 0.00634707396,42.8188623 0.00634707396,42.8219775 C0.00634707396,42.8282079 0.00952061093,42.8328806 0.0111073794,42.839111 C0.0349089068,43.1303801 0.111073794,43.4123038 0.239602042,43.6724211 C0.244362347,43.6817666 0.250709421,43.687997 0.255469727,43.6973425 C0.380824437,43.941884 0.549021897,44.1646192 0.753715032,44.3530875 C0.760062106,44.3577603 0.763235643,44.3639906 0.767995949,44.370221 C0.961581704,44.544671 1.1932499,44.6817388 1.44554609,44.7892124 C1.47569469,44.8016731 1.50108299,44.817249 1.53123159,44.8281522 C1.55344635,44.8359401 1.5709008,44.8499584 1.59470233,44.8577464 C1.85493236,44.9465289 2.1199227,44.9885838 2.38015273,44.9885838 C2.38332627,44.9885838 2.38491304,44.9885838 2.38808658,44.9885838 C2.4420367,44.9870262 2.49916037,44.9854687 2.55469727,44.9823535 L7.34832487,44.6365687 L7.64346381,73.1544659 C7.65457119,74.2650269 8.46223635,75.2151562 9.57456106,75.4254307 L46.7969763,82.4501572 C46.8017366,82.4517147 46.8064969,82.4532723 46.812844,82.4532723 L46.8334719,82.4579451 C46.9826282,82.4859817 47.1333712,82.5 47.2825274,82.5 C47.4316837,82.5 47.5808399,82.4859817 47.7268226,82.4595027 L47.7601447,82.4532723 C47.7617315,82.4532723 47.7633183,82.4532723 47.764905,82.4517147 L85.4649376,75.4269883 C86.5740887,75.219829 87.3833407,74.27593 87.4007951,73.1669266 L87.8530241,44.2129045 L93.4892258,44.5150768 C94.3524279,44.5524589 95.1759607,44.1443706 95.6361236,43.4247645 C96.0962864,42.7051583 96.1216747,41.7970839 95.7027679,41.0525564 Z" id="path-1"></path>
    </defs>
    <g id="Website" stroke="none" stroke-width="1" fill="none" fill-rule="evenodd">
        <g id="Home" transform="translate(-975.000000, -2945.000000)">
            <g id="Group-16" transform="translate(0.000000, 2850.000000)">
                <g id="Group-15" transform="translate(770.000000, 80.000000)">
                    <g id="Icons-/-box" transform="translate(205.000000, 0.000000)">
                        <mask id="mask-2" fill="white">
                            <use xlink:href="#path-1"></use>
                        </mask>
                        <use id="Mask" fill="#000000" fill-rule="evenodd" xlink:href="#path-1"></use>
                        <g id="color/white" mask="url(#mask-2)" fill="#FFFFFF" fill-rule="evenodd">
                            <g transform="translate(-27.000000, -27.000000)" id="white">
                                <rect x="0" y="0" width="150" height="150"></rect>
                            </g>
                        </g>
                    </g>
                </g>
            </g>
        </g>
    </g>
</svg>