<?xml version="1.0" encoding="UTF-8"?>
<svg width="57px" height="40px" viewBox="0 0 57 40" version="1.1" xmlns="http://www.w3.org/2000/svg" xmlns:xlink="http://www.w3.org/1999/xlink">
    <!-- Generator: sketchtool 52.5 (67469) - http://www.bohemiancoding.com/sketch -->
    <title>33186698-7E43-47CE-826C-E859935F1512</title>
    <desc>Created with sketchtool.</desc>
    <defs>
        <path d="M23.9462637,6.875 C23.2547473,6.875 22.6935165,6.315 22.6935165,5.625 C22.6935165,2.52375 25.2228132,0 28.3308791,0 C31.4389451,0 33.9682418,2.52375 33.9682418,5.625 C33.9682418,8.29625 32.0903736,10.534375 29.5836264,11.105 L29.5836264,11.875 C29.5836264,12.565 29.0223956,13.125 28.3308791,13.125 C27.6393626,13.125 27.0781319,12.565 27.0781319,11.875 L27.0781319,10 C27.0781319,9.91375 27.0869011,9.829375 27.1038132,9.748125 C27.204033,9.26 27.5892527,8.875625 28.0784505,8.775625 C28.1598791,8.75875 28.2444396,8.75 28.3308791,8.75 C30.0577912,8.75 31.4627473,7.348125 31.4627473,5.625 C31.4627473,3.901875 30.0577912,2.5 28.3308791,2.5 C26.603967,2.5 25.199011,3.901875 25.199011,5.625 C25.199011,6.315 24.6377802,6.875 23.9462637,6.875 Z M54.1575165,30.669875 C56.5502637,32.048625 57.3726923,35.113 55.9915385,37.499875 C55.0995824,39.0405 53.4371868,39.998625 51.6526484,40.0005 L5.01036264,40.0005 C3.22457143,39.998625 1.56217582,39.0405 0.67021978,37.499875 C-0.710934066,35.113 0.111494505,32.048625 2.50424176,30.669875 L2.59506593,30.622375 L30.1555055,17.619875 C30.7818791,17.323625 31.5278901,17.59175 31.8235385,18.2155 C32.1191868,18.839875 31.8523516,19.584875 31.2266044,19.879875 L3.71752747,32.858 C2.55184615,33.558625 2.15723077,35.069875 2.83997802,36.249875 C3.28595604,37.0205 4.11778022,37.499875 5.01161538,37.5005 L51.652022,37.5005 C52.543978,37.499875 53.3758022,37.0205 53.8217802,36.249875 C54.5032747,35.071125 54.1111648,33.563 52.9504945,32.86175 L31.422033,23.011125 C30.7925275,22.723625 30.5169231,21.98175 30.8050549,21.35425 C31.0938132,20.72675 31.8373187,20.4505 32.4661978,20.738625 L54.1575165,30.669875 Z M30.2800286,13.255 C30.9007648,12.948125 31.6517868,13.20125 31.9587099,13.82 C32.2662593,14.43875 32.012578,15.18875 31.3924681,15.495 L26.3651934,17.98125 C26.1860505,18.069375 25.9968857,18.11125 25.8096,18.11125 C25.348589,18.11125 24.9051165,17.85625 24.6865121,17.41625 C24.3789626,16.7975 24.632644,16.0475 25.2527538,15.74125 L30.2800286,13.255 Z" id="path-1"></path>
    </defs>
    <g id="Website" stroke="none" stroke-width="1" fill="none" fill-rule="evenodd">
        <g id="Home" transform="translate(-746.000000, -3622.000000)">
            <g id="Group-8" transform="translate(0.000000, 3274.000000)">
                <g id="Why">
                    <g id="Group-4" transform="translate(323.000000, 168.000000)">
                        <g id="style" transform="translate(423.000000, 180.000000)">
                            <g id="icon-/-coat-hanger">
                                <mask id="mask-2" fill="white">
                                    <use xlink:href="#path-1"></use>
                                </mask>
                                <use id="Mask" fill="#9B9B9B" fill-rule="evenodd" xlink:href="#path-1"></use>
                                <g id="color/black" mask="url(#mask-2)" fill="#000000" fill-rule="evenodd">
                                    <g transform="translate(-3.131868, -11.250000)" id="Black">
                                        <rect x="0" y="0" width="63" height="63"></rect>
                                    </g>
                                </g>
                            </g>
                        </g>
                    </g>
                </g>
            </g>
        </g>
    </g>
</svg>