<?xml version="1.0" encoding="UTF-8"?>
<svg width="40px" height="40px" viewBox="0 0 40 40" version="1.1" xmlns="http://www.w3.org/2000/svg" xmlns:xlink="http://www.w3.org/1999/xlink">
    <!-- Generator: sketchtool 52.5 (67469) - http://www.bohemiancoding.com/sketch -->
    <title>DB969B47-8994-486D-9B32-D802EE174E7E</title>
    <desc>Created with sketchtool.</desc>
    <defs>
        <path d="M15,8.373125 C14.534375,7.645625 13.916875,7.028125 13.189375,6.5625 C13.916875,6.096875 14.534375,5.479375 15,4.751875 C15.465625,5.479375 16.083125,6.096875 16.810625,6.5625 C16.083125,7.028125 15.465625,7.645625 15,8.373125 M20,5.625 C20.518125,5.625 20.9375,6.044375 20.9375,6.5625 C20.9375,7.080625 20.518125,7.5 20,7.5 C17.76,7.5 15.9375,9.3225 15.9375,11.5625 C15.9375,12.080625 15.518125,12.5 15,12.5 C14.481875,12.5 14.0625,12.080625 14.0625,11.5625 C14.0625,9.3225 12.24,7.5 10,7.5 C9.481875,7.5 9.0625,7.080625 9.0625,6.5625 C9.0625,6.044375 9.481875,5.625 10,5.625 C12.24,5.625 14.0625,3.8025 14.0625,1.5625 C14.0625,1.044375 14.481875,0.625 15,0.625 C15.518125,0.625 15.9375,1.044375 15.9375,1.5625 C15.9375,3.8025 17.76,5.625 20,5.625 Z M35.625,28.75 C36.143125,28.75 36.5625,29.169375 36.5625,29.6875 C36.5625,30.205625 36.143125,30.625 35.625,30.625 C33.385,30.625 31.5625,32.4475 31.5625,34.6875 C31.5625,35.205 31.143125,35.625 30.625,35.625 C30.106875,35.625 29.6875,35.205 29.6875,34.6875 C29.6875,32.4475 27.865,30.625 25.625,30.625 C25.106875,30.625 24.6875,30.205625 24.6875,29.6875 C24.6875,29.169375 25.106875,28.75 25.625,28.75 C27.865,28.75 29.6875,26.9275 29.6875,24.6875 C29.6875,24.169375 30.106875,23.75 30.625,23.75 C31.143125,23.75 31.5625,24.169375 31.5625,24.6875 C31.5625,26.9275 33.385,28.75 35.625,28.75 Z M30.625,31.498125 C31.090625,30.770625 31.708125,30.153125 32.435625,29.6875 C31.708125,29.221875 31.090625,28.604375 30.625,27.876875 C30.159375,28.604375 29.541875,29.221875 28.814375,29.6875 C29.541875,30.153125 30.159375,30.770625 30.625,31.498125 Z M35.625,3.5855 C35.673125,3.53425 35.721875,3.4855 35.773125,3.437375 C35.721875,3.389875 35.673125,3.3405 35.625,3.28925 C35.576875,3.3405 35.528125,3.389875 35.476875,3.437375 C35.528125,3.4855 35.576875,3.53425 35.625,3.5855 Z M38.125,2.499875 C38.643125,2.499875 39.0625,2.919875 39.0625,3.437375 C39.0625,3.9555 38.643125,4.374875 38.125,4.374875 C37.26375,4.374875 36.5625,5.076125 36.5625,5.937375 C36.5625,6.4555 36.143125,6.874875 35.625,6.874875 C35.106875,6.874875 34.6875,6.4555 34.6875,5.937375 C34.6875,5.076125 33.98625,4.374875 33.125,4.374875 C32.606875,4.374875 32.1875,3.9555 32.1875,3.437375 C32.1875,2.919875 32.606875,2.499875 33.125,2.499875 C33.98625,2.499875 34.6875,1.79925 34.6875,0.937375 C34.6875,0.419875 35.106875,-0.000125 35.625,-0.000125 C36.143125,-0.000125 36.5625,0.419875 36.5625,0.937375 C36.5625,1.79925 37.26375,2.499875 38.125,2.499875 Z M36.5625,18.5855 C36.514375,18.53425 36.465625,18.4855 36.414375,18.437375 C36.465625,18.389875 36.514375,18.3405 36.5625,18.28925 C36.610625,18.3405 36.659375,18.389875 36.710625,18.437375 C36.659375,18.4855 36.610625,18.53425 36.5625,18.5855 M39.0625,17.499875 C39.580625,17.499875 40,17.919875 40,18.437375 C40,18.9555 39.580625,19.374875 39.0625,19.374875 C38.20125,19.374875 37.5,20.076125 37.5,20.937375 C37.5,21.4555 37.080625,21.874875 36.5625,21.874875 C36.044375,21.874875 35.625,21.4555 35.625,20.937375 C35.625,20.076125 34.92375,19.374875 34.0625,19.374875 C33.544375,19.374875 33.125,18.9555 33.125,18.437375 C33.125,17.919875 33.544375,17.499875 34.0625,17.499875 C34.92375,17.499875 35.625,16.79925 35.625,15.937375 C35.625,15.419875 36.044375,14.999875 36.5625,14.999875 C37.080625,14.999875 37.5,15.419875 37.5,15.937375 C37.5,16.79925 38.20125,17.499875 39.0625,17.499875 Z M31.150125,8.537125 C32.612,9.999625 32.612,12.378375 31.150125,13.84025 L6.401375,38.589 C5.67075,39.32025 4.710125,39.685875 3.750125,39.685875 C2.7895,39.685875 1.8295,39.32025 1.09825,38.589 C0.390125,37.880875 0.000125,36.939 0.000125,35.93775 C0.000125,34.935875 0.390125,33.994 1.09825,33.285875 L25.847,8.537125 C27.308875,7.074625 29.68825,7.07525 31.150125,8.537125 Z M4.633875,36.8215 L23.19575,18.259625 L21.427625,16.492125 L2.86575,35.054 C2.630125,35.289625 2.500125,35.603375 2.500125,35.93775 C2.500125,36.2715 2.630125,36.58525 2.86575,36.8215 C3.353875,37.308375 4.146375,37.308375 4.633875,36.8215 Z M29.382625,12.07275 C29.870125,11.58525 29.870125,10.792125 29.382625,10.304625 C29.138875,10.0615 28.818875,9.939625 28.498875,9.939625 C28.178875,9.939625 27.858875,10.0615 27.6145,10.304625 L23.195125,14.724625 L24.96325,16.492125 L29.382625,12.07275 Z" id="path-1"></path>
    </defs>
    <g id="Website" stroke="none" stroke-width="1" fill="none" fill-rule="evenodd">
        <g id="Home" transform="translate(-323.000000, -3807.000000)">
            <g id="Group-8" transform="translate(0.000000, 3274.000000)">
                <g id="Why">
                    <g id="Group-4" transform="translate(323.000000, 168.000000)">
                        <g id="confidence" transform="translate(0.000000, 365.000000)">
                            <g id="icon-/-enhance">
                                <mask id="mask-2" fill="white">
                                    <use xlink:href="#path-1"></use>
                                </mask>
                                <use id="Combined-Shape" fill="#000000" fill-rule="evenodd" xlink:href="#path-1"></use>
                                <g id="color/black" mask="url(#mask-2)" fill="#000000" fill-rule="evenodd">
                                    <g transform="translate(-11.250000, -11.250000)" id="Black">
                                        <rect x="0" y="0" width="63" height="63"></rect>
                                    </g>
                                </g>
                            </g>
                        </g>
                    </g>
                </g>
            </g>
        </g>
    </g>
</svg>