<?xml version="1.0" encoding="UTF-8"?>
<svg width="32px" height="40px" viewBox="0 0 32 40" version="1.1" xmlns="http://www.w3.org/2000/svg" xmlns:xlink="http://www.w3.org/1999/xlink">
    <!-- Generator: sketchtool 52.5 (67469) - http://www.bohemiancoding.com/sketch -->
    <title>589428BD-703F-4DC8-B0FA-2E4677A6E380</title>
    <desc>Created with sketchtool.</desc>
    <defs>
        <path d="M6.875,7.43796875 L6.875,23.7498437 C6.875,31.8867188 17.809375,36.5610938 20.02375,37.4235938 C22.23625,36.6479688 33.125,32.3860938 33.125,23.7498437 L33.125,7.43796875 C28.506875,7.00359375 22.45625,4.38984375 20,2.80421875 C17.54375,4.38984375 11.493125,7.00359375 6.875,7.43796875 M20,39.9998437 C19.86125,39.9998437 19.7225,39.9767187 19.589375,39.9304687 C18.968125,39.7142188 4.375,34.5148437 4.375,23.7498437 L4.375,6.24984375 C4.375,5.55984375 4.935,4.99984375 5.625,4.99984375 C10.191875,4.99984375 18.078125,1.40359375 19.11625,0.36609375 C19.60375,-0.12203125 20.39625,-0.12203125 20.88375,0.36609375 C21.921875,1.40359375 29.808125,4.99984375 34.375,4.99984375 C35.065,4.99984375 35.625,5.55984375 35.625,6.24984375 L35.625,23.7498437 C35.625,28.5292187 32.94875,32.8585937 27.88625,36.2704687 C24.179375,38.7685937 20.518125,39.8985937 20.364375,39.9454687 C20.245625,39.9817187 20.1225,39.9998437 20,39.9998437 Z M28.3969375,13.7682187 C27.9088125,13.2800937 27.1175625,13.2800937 26.6288125,13.7682187 L17.7900625,22.6069687 L13.3706875,18.1875937 C12.8825625,17.6994687 12.0913125,17.6994687 11.6031875,18.1875937 C11.1150625,18.6757187 11.1150625,19.4675937 11.6031875,19.9550937 L16.9063125,25.2588437 C17.3944375,25.7469687 18.1863125,25.7469687 18.6744375,25.2588437 L28.3969375,15.5363437 C28.8850625,15.0475937 28.8850625,14.2563437 28.3969375,13.7682187 Z" id="path-1"></path>
    </defs>
    <g id="Website" stroke="none" stroke-width="1" fill="none" fill-rule="evenodd">
        <g id="Home" transform="translate(-767.000000, -3807.000000)">
            <g id="Group-8" transform="translate(0.000000, 3274.000000)">
                <g id="Why">
                    <g id="Group-4" transform="translate(323.000000, 168.000000)">
                        <g id="security" transform="translate(440.000000, 365.000000)">
                            <g id="icon-/-security">
                                <mask id="mask-2" fill="white">
                                    <use xlink:href="#path-1"></use>
                                </mask>
                                <use id="Fill-3" fill="#000000" fill-rule="evenodd" xlink:href="#path-1"></use>
                                <g id="color/black" mask="url(#mask-2)" fill="#000000" fill-rule="evenodd">
                                    <g transform="translate(-11.250000, -11.250000)" id="Black">
                                        <rect x="0" y="0" width="63" height="63"></rect>
                                    </g>
                                </g>
                            </g>
                        </g>
                    </g>
                </g>
            </g>
        </g>
    </g>
</svg>