<?xml version="1.0" encoding="UTF-8"?>
<svg width="36px" height="40px" viewBox="0 0 36 40" version="1.1" xmlns="http://www.w3.org/2000/svg" xmlns:xlink="http://www.w3.org/1999/xlink">
    <!-- Generator: sketchtool 52.5 (67469) - http://www.bohemiancoding.com/sketch -->
    <title>CF7A9190-61EE-4112-B6AA-B63EA33FBAB4</title>
    <desc>Created with sketchtool.</desc>
    <defs>
        <path d="M36.25,16.0553125 C36.94,16.0553125 37.5,16.6153125 37.5,17.3053125 L37.5,38.5553125 C37.5,39.2453125 36.94,39.8053125 36.25,39.8053125 L3.75,39.8053125 C3.06,39.8053125 2.5,39.2453125 2.5,38.5553125 L2.5,17.3053125 C2.5,16.6153125 3.06,16.0553125 3.75,16.0553125 L12.5,16.0553125 C13.19,16.0553125 13.75,16.6153125 13.75,17.3053125 C13.75,17.9953125 13.19,18.5553125 12.5,18.5553125 L5,18.5553125 L5,37.3053125 L35,37.3053125 L35,18.5553125 L27.5,18.5553125 C26.81,18.5553125 26.25,17.9953125 26.25,17.3053125 C26.25,16.6153125 26.81,16.0553125 27.5,16.0553125 L36.25,16.0553125 Z M13.3838125,9.6331875 C12.8963125,10.1213125 12.1038125,10.1213125 11.6163125,9.6331875 C11.1281875,9.1450625 11.1281875,8.3538125 11.6163125,7.8656875 L19.1150625,0.3663125 C19.1738125,0.3081875 19.2375625,0.2556875 19.3069375,0.2100625 C19.3381875,0.1888125 19.3719375,0.1744375 19.4044375,0.1563125 C19.4431875,0.1356875 19.4806875,0.1119375 19.5219375,0.0950625 C19.5638125,0.0775625 19.6069375,0.0675625 19.6494375,0.0550625 C19.6850625,0.0450625 19.7188125,0.0313125 19.7550625,0.0238125 C19.9169375,-0.0080625 20.0831875,-0.0080625 20.2450625,0.0238125 C20.2813125,0.0313125 20.3144375,0.0450625 20.3500625,0.0550625 C20.3931875,0.0675625 20.4363125,0.0775625 20.4781875,0.0950625 C20.5194375,0.1119375 20.5563125,0.1356875 20.5950625,0.1563125 C20.6275625,0.1744375 20.6619375,0.1888125 20.6931875,0.2100625 C20.7625625,0.2556875 20.8263125,0.3081875 20.8844375,0.3663125 L28.3838125,7.8656875 C28.8719375,8.3538125 28.8719375,9.1450625 28.3838125,9.6331875 C28.1400625,9.8775625 27.8200625,9.9994375 27.5000625,9.9994375 C27.1800625,9.9994375 26.8600625,9.8775625 26.6163125,9.6331875 L21.2500625,4.2675625 L21.2500625,23.7494375 C21.2500625,24.4394375 20.6900625,24.9994375 20.0000625,24.9994375 C19.3094375,24.9994375 18.7500625,24.4394375 18.7500625,23.7494375 L18.7500625,4.2675625 L13.3838125,9.6331875 Z" id="path-1"></path>
    </defs>
    <g id="Website" stroke="none" stroke-width="1" fill="none" fill-rule="evenodd">
        <g id="Home" transform="translate(-765.000000, -3442.000000)">
            <g id="Group-8" transform="translate(0.000000, 3274.000000)">
                <g id="Why">
                    <g id="Group-4" transform="translate(323.000000, 168.000000)">
                        <g id="security" transform="translate(440.000000, 0.000000)">
                            <g id="icon-/-share">
                                <mask id="mask-2" fill="white">
                                    <use xlink:href="#path-1"></use>
                                </mask>
                                <use id="Mask" fill="#000000" fill-rule="evenodd" xlink:href="#path-1"></use>
                                <g id="color/black" mask="url(#mask-2)" fill="#000000" fill-rule="evenodd">
                                    <g transform="translate(-11.250000, -11.250000)" id="Black">
                                        <rect x="0" y="0" width="63" height="63"></rect>
                                    </g>
                                </g>
                            </g>
                        </g>
                    </g>
                </g>
            </g>
        </g>
    </g>
</svg>