<?xml version="1.0" encoding="UTF-8"?>
<svg width="24px" height="40px" viewBox="0 0 24 40" version="1.1" xmlns="http://www.w3.org/2000/svg" xmlns:xlink="http://www.w3.org/1999/xlink">
    <!-- Generator: sketchtool 52.5 (67469) - http://www.bohemiancoding.com/sketch -->
    <title>76B66F1D-5195-4121-88F7-F26639DF60A3</title>
    <desc>Created with sketchtool.</desc>
    <defs>
        <path d="M19.908875,26.875 C16.557,26.875 13.400125,26.04625 10.625125,24.58875 C13.291375,21.5175 14.908875,17.51125 14.908875,13.125 C14.908875,10.55625 14.35075,8.11875 13.356375,5.92125 C15.18325,5.361875 16.712625,4.1225 17.652,2.5 L22.172,2.5 C23.112,4.12125 24.635125,5.3625 26.461375,5.92125 C25.467,8.11875 24.908875,10.55625 24.908875,13.125 C24.908875,17.51125 26.526375,21.5175 29.192625,24.58875 C26.417625,26.04625 23.26075,26.875 19.908875,26.875 M24.947625,37.5 L14.870125,37.5 C15.792625,35.649375 17.705125,34.375 19.908875,34.375 C22.112625,34.375 24.025125,35.649375 24.947625,37.5 M31.08075,22.95 C28.712625,20.2225 27.408875,16.733125 27.408875,13.125 C27.408875,10.979375 27.856375,8.9025 28.738875,6.951875 C29.035125,6.296875 29.03575,5.546875 28.7395,4.891875 C28.44325,4.236875 27.880125,3.740625 27.19325,3.530625 C25.990125,3.1625 24.975125,2.35125 24.3345,1.24625 C23.887625,0.475 23.06325,0 22.172,0 L17.652,0 C16.760125,0 15.93575,0.475 15.488875,1.246875 C14.850125,2.35 13.832625,3.16125 12.6245,3.530625 C11.937625,3.74125 11.3745,4.236875 11.07825,4.891875 C10.782,5.546875 10.782625,6.296875 11.078875,6.951875 C11.961375,8.9025 12.408875,10.979375 12.408875,13.125 C12.408875,16.733125 11.105125,20.2225 8.737,22.95 C8.236375,23.526875 8.027,24.300625 8.16825,25.05125 C8.3095,25.801875 8.786375,26.446875 9.462625,26.801875 C12.298875,28.291875 15.455125,29.156875 18.658875,29.336875 L18.658875,31.98125 C14.766375,32.58375 11.783875,35.93875 11.783875,40 L28.033875,40 C28.033875,35.93875 25.051375,32.58375 21.158875,31.98125 L21.158875,29.336875 C24.362625,29.156875 27.518875,28.291875 30.355125,26.801875 C31.031375,26.446875 31.50825,25.801875 31.6495,25.05125 C31.79075,24.300625 31.581375,23.526875 31.08075,22.95" id="path-1"></path>
    </defs>
    <g id="Website" stroke="none" stroke-width="1" fill="none" fill-rule="evenodd">
        <g id="Home" transform="translate(-331.000000, -3622.000000)">
            <g id="Group-8" transform="translate(0.000000, 3274.000000)">
                <g id="Why">
                    <g id="Group-4" transform="translate(323.000000, 168.000000)">
                        <g id="try-on" transform="translate(0.000000, 180.000000)">
                            <g id="icon-/-stylist">
                                <mask id="mask-2" fill="white">
                                    <use xlink:href="#path-1"></use>
                                </mask>
                                <use id="Mask" fill="#000000" fill-rule="evenodd" xlink:href="#path-1"></use>
                                <g id="color/black" mask="url(#mask-2)" fill="#000000" fill-rule="evenodd">
                                    <g transform="translate(-11.250000, -11.250000)" id="Black">
                                        <rect x="0" y="0" width="63" height="63"></rect>
                                    </g>
                                </g>
                            </g>
                        </g>
                    </g>
                </g>
            </g>
        </g>
    </g>
</svg>