<?xml version="1.0" encoding="UTF-8"?>
<svg width="372px" height="372px" viewBox="0 0 372 372" version="1.1" xmlns="http://www.w3.org/2000/svg" xmlns:xlink="http://www.w3.org/1999/xlink">
    <!-- Generator: sketchtool 52.5 (67469) - http://www.bohemiancoding.com/sketch -->
    <title>F570601A-FAA4-4B36-9AA3-E222DDE60674</title>
    <desc>Created with sketchtool.</desc>
    <defs>
        <path d="M53.1436875,79.717275 L53.1436875,106.292025 L53.1436875,186.00465 C53.1436875,200.6754 65.0360625,212.573588 79.712625,212.573588 L239.143687,212.573588 C253.82025,212.573588 265.712625,224.471775 265.712625,239.142525 L265.712625,239.148338 C265.712625,253.8249 253.82025,265.717275 239.143687,265.717275 L79.712625,265.717275 C65.0360625,265.717275 53.1436875,277.60965 53.1436875,292.286213 L53.1436875,345.4299 C53.1436875,360.106463 41.2513125,372.00465 26.57475,372.00465 C11.8981875,372.00465 -2.13162821e-14,360.106463 -2.13162821e-14,345.4299 L-2.13162821e-14,53.1483375 C-2.13162821e-14,23.7952125 23.796375,0.00465 53.1436875,0.00465 L239.143687,0.00465 C253.82025,0.00465 265.712625,11.9028375 265.712625,26.5735875 C265.712625,41.25015 253.82025,53.1483375 239.143687,53.1483375 L106.293187,53.1483375 L79.712625,53.1483375 C65.0360625,53.1483375 53.1436875,65.0407125 53.1436875,79.717275 Z M318.860963,292.287375 L318.860963,265.712625 L318.860963,186 C318.860963,171.32925 306.968588,159.431063 292.292025,159.431063 L132.860963,159.431063 C118.1844,159.431063 106.292025,147.532875 106.292025,132.862125 L106.292025,132.856313 C106.292025,118.17975 118.1844,106.287375 132.860963,106.287375 L292.292025,106.287375 C306.968588,106.287375 318.860963,94.395 318.860963,79.7184375 L318.860963,26.57475 C318.860963,11.8981875 330.753338,1.42108547e-14 345.4299,1.42108547e-14 C360.106463,1.42108547e-14 372.00465,11.8981875 372.00465,26.57475 L372.00465,318.856313 C372.00465,348.209438 348.208275,372 318.860963,372 L132.860963,372 C118.1844,372 106.292025,360.101813 106.292025,345.431063 C106.292025,330.7545 118.1844,318.856313 132.860963,318.856313 L265.711463,318.856313 L292.292025,318.856313 C306.968588,318.856313 318.860963,306.963938 318.860963,292.287375 Z" id="path-1"></path>
    </defs>
    <g id="Website" stroke="none" stroke-width="1" fill="none" fill-rule="evenodd">
        <g id="Home" transform="translate(-858.000000, -4851.000000)">
            <g id="Group-8" transform="translate(0.000000, 3274.000000)">
                <g id="Group-7" transform="translate(0.000000, 1497.000000)">
                    <g id="Group-3" transform="translate(205.000000, 80.000000)">
                        <g id="Logo-/-SureFit-/-Icon-only" transform="translate(653.000000, 0.000000)">
                            <mask id="mask-2" fill="white">
                                <use xlink:href="#path-1"></use>
                            </mask>
                            <use id="SureFit-Logo" fill="#000000" fill-rule="evenodd" xlink:href="#path-1"></use>
                            <g id="Color-/-07-White" mask="url(#mask-2)"></g>
                        </g>
                    </g>
                </g>
            </g>
        </g>
    </g>
</svg>